<svg width="41" height="40" viewBox="0 0 41 40" fill="none" xmlns="http://www.w3.org/2000/svg">
<g id="Group 32">
<ellipse id="Ellipse 1" cx="20.6658" cy="20" rx="19.9725" ry="20" fill="#F84072"/>
<g id="Group">
<path id="Vector" d="M23.6875 27.1215C23.6875 27.9949 24.3969 28.7053 25.2693 28.7053C26.1414 28.7053 26.8509 27.9949 26.8509 27.1215C26.8509 26.2485 26.1415 25.5381 25.2693 25.5381C24.3969 25.5381 23.6875 26.2486 23.6875 27.1215Z" fill="white"/>
<path id="Vector_2" d="M17.0078 27.1215C17.0078 27.9949 17.7172 28.7053 18.5896 28.7053C19.4614 28.7053 20.1708 27.9949 20.1708 27.1215C20.1708 26.2485 19.4615 25.5381 18.5896 25.5381C17.7174 25.5381 17.0078 26.2486 17.0078 27.1215Z" fill="white"/>
<path id="Vector_3" d="M11.0341 12.8054L13.2236 13.081L13.778 14.917L13.7821 14.9211C13.7821 14.9333 13.7862 14.9413 13.7902 14.9494L16.0406 22.2406C15.903 22.3217 15.7775 22.4189 15.6642 22.5364C15.3525 22.8647 15.1907 23.2862 15.2109 23.724C15.2311 24.1374 15.4011 24.5224 15.7006 24.8264C15.8908 25.0128 16.1417 25.1385 16.4251 25.1872C16.4452 25.1912 16.4696 25.1912 16.4898 25.1912L27.3567 25.1911C27.5793 25.1911 27.7614 25.0087 27.7614 24.7858C27.7614 24.563 27.5793 24.3806 27.3567 24.3806H16.5301C16.4492 24.3643 16.348 24.3279 16.2671 24.2468C16.1173 24.0968 16.0282 23.8982 16.0203 23.6875C16.0121 23.4728 16.0931 23.2619 16.251 23.0959C16.4249 22.9135 16.6678 22.8123 16.9148 22.8123H27.3529C27.5309 22.8123 27.6888 22.6988 27.7415 22.5285L27.7536 22.488L30.0929 14.9214C30.1293 14.7958 30.1092 14.6621 30.0323 14.5607C29.9554 14.4553 29.8339 14.3944 29.7045 14.3944H23.9935V14.9335C24.3941 14.974 24.7463 15.2252 24.9123 15.5981C25.0944 16.0033 25.0175 16.4817 24.7221 16.8098L22.7875 19.0187C22.5771 19.2619 22.2654 19.4078 21.9375 19.4078C21.6056 19.4078 21.294 19.2619 21.0795 19.0146L19.1409 16.8058C18.8536 16.4816 18.7767 16.0033 18.9588 15.5981C19.1248 15.2253 19.4768 14.9739 19.8776 14.9335V14.3944H14.4623L13.9199 12.5949C13.8754 12.4409 13.7419 12.3274 13.584 12.3072L11.1355 12.0033C10.9129 11.975 10.7105 12.133 10.6822 12.3559C10.6578 12.5747 10.8116 12.7773 11.0342 12.8058L11.0341 12.8054Z" fill="white"/>
<path id="Vector_4" d="M22.8647 12.4932H21.009C20.8322 12.4932 20.6877 12.6382 20.6877 12.8153V15.7358H19.9928C19.8678 15.7358 19.752 15.81 19.7001 15.926C19.6488 16.0418 19.6681 16.1772 19.752 16.2705L21.6938 18.4858C21.755 18.5567 21.8453 18.5952 21.9383 18.5952C22.0286 18.5952 22.1183 18.5567 22.1795 18.4858L24.1217 16.2705C24.2055 16.1772 24.2245 16.042 24.173 15.926C24.1217 15.8101 24.0058 15.7358 23.8805 15.7358H23.186V12.8153C23.186 12.6384 23.0415 12.4932 22.8646 12.4932H22.8647Z" fill="white"/>
</g>
</g>
</svg>
