<svg width="41" height="40" viewBox="0 0 41 40" fill="none" xmlns="http://www.w3.org/2000/svg">
<g id="Group 23">
<circle id="Ellipse 1" cx="20.6934" cy="20" r="20" fill="#ECECF2"/>
<g id="Group">
<path id="Vector" d="M23.7188 27.1215C23.7188 27.9949 24.4291 28.7053 25.3027 28.7053C26.1761 28.7053 26.8865 27.9949 26.8865 27.1215C26.8865 26.2485 26.1761 25.5381 25.3027 25.5381C24.4292 25.5381 23.7188 26.2486 23.7188 27.1215Z" fill="#68686A"/>
<path id="Vector_2" d="M17.0312 27.1215C17.0312 27.9949 17.7416 28.7053 18.6152 28.7053C19.4882 28.7053 20.1986 27.9949 20.1986 27.1215C20.1986 26.2485 19.4883 25.5381 18.6152 25.5381C17.7418 25.5381 17.0312 26.2486 17.0312 27.1215Z" fill="#68686A"/>
<path id="Vector_3" d="M11.0483 12.8054L13.2408 13.081L13.796 14.917L13.8 14.9211C13.8 14.9333 13.8041 14.9413 13.8082 14.9494L16.0616 22.2406C15.9239 22.3217 15.7982 22.4189 15.6847 22.5364C15.3726 22.8647 15.2106 23.2862 15.2308 23.724C15.251 24.1374 15.4213 24.5224 15.7212 24.8264C15.9117 25.0128 16.1629 25.1385 16.4467 25.1872C16.4669 25.1912 16.4913 25.1912 16.5115 25.1912L27.3934 25.1911C27.6163 25.1911 27.7986 25.0087 27.7986 24.7858C27.7986 24.563 27.6163 24.3806 27.3934 24.3806H16.5519C16.4708 24.3643 16.3695 24.3279 16.2884 24.2468C16.1385 24.0968 16.0493 23.8982 16.0413 23.6875C16.0332 23.4728 16.1142 23.2619 16.2723 23.0959C16.4465 22.9135 16.6898 22.8123 16.9371 22.8123H27.3895C27.5678 22.8123 27.7259 22.6988 27.7786 22.5285L27.7909 22.488L30.1333 14.9214C30.1698 14.7958 30.1496 14.6621 30.0726 14.5607C29.9956 14.4553 29.874 14.3944 29.7444 14.3944H24.0255V14.9335C24.4267 14.974 24.7793 15.2252 24.9456 15.5981C25.1279 16.0033 25.0509 16.4817 24.7551 16.8098L22.8178 19.0187C22.6072 19.2619 22.2951 19.4078 21.9667 19.4078C21.6344 19.4078 21.3223 19.2619 21.1075 19.0146L19.1662 16.8058C18.8785 16.4816 18.8015 16.0033 18.9839 15.5981C19.1501 15.2253 19.5026 14.9739 19.9039 14.9335V14.3944H14.4812L13.9381 12.5949C13.8935 12.4409 13.7598 12.3274 13.6017 12.3072L11.1498 12.0033C10.9269 11.975 10.7242 12.133 10.6959 12.3559C10.6715 12.5747 10.8255 12.7773 11.0484 12.8058L11.0483 12.8054Z" fill="#68686A"/>
<path id="Vector_4" d="M22.8944 12.4922H21.0362C20.8591 12.4922 20.7145 12.6372 20.7145 12.8143V15.7349H20.0187C19.8935 15.7349 19.7775 15.809 19.7256 15.925C19.6742 16.0409 19.6935 16.1762 19.7775 16.2695L21.722 18.4848C21.7833 18.5557 21.8737 18.5942 21.9668 18.5942C22.0572 18.5942 22.1471 18.5557 22.2083 18.4848L24.1532 16.2695C24.2372 16.1762 24.2562 16.041 24.2046 15.925C24.1532 15.8092 24.0372 15.7349 23.9117 15.7349H23.2162V12.8143C23.2162 12.6374 23.0715 12.4922 22.8944 12.4922H22.8944Z" fill="#68686A"/>
</g>
</g>
</svg>
