<svg width="31" height="22" viewBox="0 0 31 22" fill="none" xmlns="http://www.w3.org/2000/svg">
<g id="Group 6356442">
<path id="Vector" fill-rule="evenodd" clip-rule="evenodd" d="M2.35963 0.00082941C2.37989 0.00163984 2.39987 0.00163984 2.42012 0.00082941H28.468C29.6883 0.00082941 30.7078 0.887127 30.8998 2.04604L16.5993 16.3142C15.8151 16.9663 14.9777 16.9293 14.2763 16.3142L0 2.06955C0.180669 0.919837 1.15959 0.0300135 2.35922 0L2.35963 0.00082941Z" fill="#F84072"/>
<path id="Vector_2" fill-rule="evenodd" clip-rule="evenodd" d="M30.8998 4.10742V19.1541C30.8998 20.5095 29.7933 21.6114 28.4375 21.6114H2.45017C1.09441 21.6114 0 20.5094 0 19.1541V4.13094L13.1809 17.3383C14.4462 18.5369 16.4451 18.5537 17.6952 17.3383L30.8998 4.10742Z" fill="#F84072"/>
</g>
</svg>
