<svg width="28" height="28" viewBox="0 0 28 28" fill="none" xmlns="http://www.w3.org/2000/svg">
<path d="M27.2329 19.7969L21.0959 17.1719C20.9315 17.1172 20.7671 17.0625 20.5479 17.0625C20.1644 17.0625 19.7808 17.2812 19.5616 17.5547L16.8219 20.8906C12.5479 18.8672 9.15068 15.4766 7.12329 11.2109L10.4658 8.47656C10.7397 8.25781 10.9589 7.875 10.9589 7.4375C10.9589 7.27344 10.9041 7.10938 10.8493 6.94531L8.21918 0.820313C8 0.328125 7.50685 0 6.9589 0C6.90411 0 6.79452 0.0546875 6.68493 0.0546875L0.986301 1.36719C0.383562 1.53125 0 2.02344 0 2.625C0 16.6797 11.3425 28 25.4247 28C26.0274 28 26.5205 27.6172 26.6849 27.0156L28 21.3281C28 21.2188 28 21.1094 28 21.0547C28 20.5078 27.6712 20.0156 27.2329 19.7969Z" fill="#F84072"/>
</svg>
